<svg xmlns="http://www.w3.org/2000/svg" version="1.1" xmlns:xlink="http://www.w3.org/1999/xlink" xmlns:svgjs="http://svgjs.com/svgjs" width="1440" height="560" preserveAspectRatio="none" viewBox="0 0 1440 560"><g mask="url(&quot;#SvgjsMask1095&quot;)" fill="none"><rect width="1440" height="560" x="0" y="0" fill="#0e2a47"></rect><path d="M1024.215,245.382C1058.502,243.034,1081.228,212.977,1096.931,182.407C1111.022,154.975,1116.497,122.755,1100.859,96.174C1085.412,69.918,1054.66,59.842,1024.215,58.81C991.4,57.697,956.544,63.552,938.005,90.651C917.18,121.091,913.979,161.486,931.93,193.705C950.322,226.714,986.516,247.963,1024.215,245.382" fill="rgba(245, 112, 182, 0.25)" class="triangle-float1"></path><path d="M226.677,160.643C255.598,159.551,286.068,155.564,302.301,131.603C320.439,104.829,323.04,69.637,307.568,41.239C291.452,11.659,260.362,-7.296,226.677,-7.202C193.146,-7.109,163.705,12.87,146.562,41.687C128.986,71.231,121.264,109.202,140.467,137.715C158.27,164.15,194.829,161.846,226.677,160.643" fill="rgba(245, 112, 182, 0.25)" class="triangle-float2"></path><path d="M1107.537,705.84C1147.185,704.366,1174.638,671.488,1195.043,637.463C1216.27,602.067,1236.255,560.266,1216.607,523.97C1196.329,486.509,1150.125,474.915,1107.537,475.808C1066.732,476.664,1026.865,493.24,1006.115,528.385C985.037,564.086,987.417,608.42,1007.989,644.415C1028.726,680.698,1065.775,707.392,1107.537,705.84" fill="rgba(245, 112, 182, 0.25)" class="triangle-float2"></path><path d="M940.27,211.271C964.982,212.425,989.761,203.358,1003.334,182.675C1018.284,159.893,1021.497,130.801,1008.953,106.611C995.399,80.471,969.695,59.966,940.27,61.056C912.199,62.096,891.646,85.89,879.873,111.394C869.963,132.861,874.407,156.995,886.642,177.227C898.385,196.646,917.601,210.213,940.27,211.271" fill="rgba(245, 112, 182, 0.25)" class="triangle-float2"></path><path d="M469.166,483.625C504.996,483.663,530.384,452.237,547.16,420.577C562.68,391.288,568.114,356.694,551.68,327.908C535.121,298.903,502.557,284.718,469.166,283.966C434.235,283.179,397.246,293.68,379.955,324.041C362.795,354.171,374.54,390.145,391.459,420.411C408.922,451.649,433.378,483.587,469.166,483.625" fill="rgba(245, 112, 182, 0.25)" class="triangle-float2"></path><path d="M567.354,185.245C595.47,184.305,620.057,168.249,634.493,144.103C649.36,119.236,654.364,88.554,640.311,63.219C625.879,37.202,597.106,23.019,567.354,23.066C537.688,23.113,510.048,38.005,494.798,63.451C479.102,89.642,476.335,122.636,491.962,148.868C507.268,174.561,537.465,186.244,567.354,185.245" fill="rgba(245, 112, 182, 0.25)" class="triangle-float1"></path><path d="M780.248,186.147C825.266,185.672,864.591,158.902,887.652,120.236C911.352,80.5,919.182,31.433,896.613,-8.956C873.551,-50.228,827.519,-72.768,780.248,-71.977C734.333,-71.209,693.258,-45.022,670.437,-5.173C647.759,34.426,646.129,82.968,668.845,122.545C691.659,162.293,734.421,186.631,780.248,186.147" fill="rgba(245, 112, 182, 0.25)" class="triangle-float3"></path><path d="M875.803,532.126C926.67,529.169,955.403,480.036,981.302,436.156C1007.859,391.162,1038.651,341.358,1016.259,294.153C991.478,241.911,933.589,211.744,875.803,213.746C821.021,215.643,777.551,255.242,751.245,303.332C726.121,349.261,721.65,403.815,746.681,449.794C772.841,497.846,821.184,535.301,875.803,532.126" fill="rgba(245, 112, 182, 0.25)" class="triangle-float1"></path><path d="M385.668,601.252C413.699,601.472,443.477,594.375,457.745,570.246C472.211,545.781,465.63,515.278,450.866,490.991C436.737,467.749,412.862,451.099,385.668,451.678C359.345,452.238,338.606,471.062,325.106,493.667C311.171,517,302.194,545.448,315.526,569.13C329.046,593.148,358.107,601.036,385.668,601.252" fill="rgba(245, 112, 182, 0.25)" class="triangle-float1"></path><path d="M1227.506,424.886C1248.971,424.51,1264.197,406.648,1275.034,388.116C1286.011,369.346,1295.325,346.625,1284.195,327.946C1273.226,309.537,1248.932,307.972,1227.506,308.354C1206.971,308.72,1185.031,312.449,1174.211,329.906C1162.92,348.123,1166.52,371.14,1177.008,389.831C1187.755,408.984,1205.547,425.27,1227.506,424.886" fill="rgba(245, 112, 182, 0.25)" class="triangle-float1"></path></g><defs><mask id="SvgjsMask1095"><rect width="1440" height="560" fill="#ffffff"></rect></mask><style>
            @keyframes float1 {
                0%{transform: translate(0, 0)}
                50%{transform: translate(-10px, 0)}
                100%{transform: translate(0, 0)}
            }

            .triangle-float1 {
                animation: float1 5s infinite;
            }

            @keyframes float2 {
                0%{transform: translate(0, 0)}
                50%{transform: translate(-5px, -5px)}
                100%{transform: translate(0, 0)}
            }

            .triangle-float2 {
                animation: float2 4s infinite;
            }

            @keyframes float3 {
                0%{transform: translate(0, 0)}
                50%{transform: translate(0, -10px)}
                100%{transform: translate(0, 0)}
            }

            .triangle-float3 {
                animation: float3 6s infinite;
            }
        </style></defs></svg>